<?xml version="1.0" standalone="no"?><!DOCTYPE svg PUBLIC "-//W3C//DTD SVG 1.1//EN" "http://www.w3.org/Graphics/SVG/1.1/DTD/svg11.dtd"><svg t="1644115739863" class="icon" viewBox="0 0 1024 1024" version="1.1" xmlns="http://www.w3.org/2000/svg" p-id="987" xmlns:xlink="http://www.w3.org/1999/xlink" width="64" height="64"><defs><style type="text/css"></style></defs><path d="M811.34997559 269.33947753c-41.11633301-41.19873047-95.993042-63.85803223-154.49523926-63.85803222-27.8503418 0-54.95910645 5.19104004-80.5847168 15.4083252-10.1348877 4.03747559-15.07873536 15.57312012-11.04125976 25.70800781s15.57312012 15.07873536 25.70800781 11.04125977c21.01135254-8.32214356 43.17626953-12.60681153 66.00036621-12.60681153 98.54736328 0 178.80249023 80.25512695 178.80249023 178.80249024 0 47.79052734-18.62182617 92.77954102-52.48718261 126.5625l-0.08239746 0.08239746-233.51440431 235.49194335c-10.05249023 10.21728516-23.56567383 15.8203125-37.90283202 15.82031251s-27.76794434-5.60302734-37.82043457-15.8203125L240.58276367 550.47961426l-0.08239746-0.08239746c-33.86535645-33.78295898-52.48718262-78.77197266-52.48718262-126.5625 0-98.54736328 80.1727295-178.80249023 178.72009278-178.80249024 98.79455567 0 179.21447754 80.41992188 179.21447754 179.21447755 0 10.95886231 8.81652833 19.77539063 19.77539062 19.77539061s19.77539063-8.81652833 19.77539063-19.77539062c0-58.41979981-22.74169922-113.37890625-64.10522461-154.74243163-41.28112793-41.28112793-96.15783692-64.02282715-154.57763672-64.02282716h-0.08239747-0.08239745c-58.41979981 0-113.29650879 22.65930176-154.4128418 63.85803223C171.1217041 310.45581055 148.46240234 365.33251953 148.46240234 423.8347168c0 58.41979981 22.74169922 113.29650879 64.10522461 154.49523926l233.34960938 235.49194335c17.55065918 17.71545411 41.03393555 27.52075195 65.91796875 27.52075196 24.96643067 0 48.36730958-9.80529786 65.91796875-27.52075195L811.1027832 578.32995606c41.28112793-41.28112793 64.10522461-96.15783692 64.10522461-154.49523926 0-58.50219727-22.74169922-113.37890625-63.85803223-154.49523927z" p-id="988" fill="#c2473a"></path></svg>