<?xml version="1.0" standalone="no"?><!DOCTYPE svg PUBLIC "-//W3C//DTD SVG 1.1//EN" "http://www.w3.org/Graphics/SVG/1.1/DTD/svg11.dtd"><svg t="1660140417745" class="icon" viewBox="0 0 1024 1024" version="1.1" xmlns="http://www.w3.org/2000/svg" p-id="1111" xmlns:xlink="http://www.w3.org/1999/xlink" width="64" height="64"><defs><style type="text/css">@font-face { font-family: feedback-iconfont; src: url("//at.alicdn.com/t/font_1031158_u69w8yhxdu.woff2?t=1630033759944") format("woff2"), url("//at.alicdn.com/t/font_1031158_u69w8yhxdu.woff?t=1630033759944") format("woff"), url("//at.alicdn.com/t/font_1031158_u69w8yhxdu.ttf?t=1630033759944") format("truetype"); }
</style></defs><path d="M811.34997559 269.33947753c-41.11633301-41.19873047-95.993042-63.85803223-154.49523926-63.85803222-45.64819336 0-89.40124512 13.9251709-126.48010255 40.37475586-11.12365723 7.91015625-26.03759766 7.91015625-37.07885741 0-37.07885742-26.3671875-80.83190918-40.37475586-126.48010254-40.37475586-58.50219727 0-113.37890625 22.65930176-154.49523926 63.85803223S148.46240234 365.33251953 148.46240234 423.8347168c0 58.41979981 22.74169922 113.29650879 64.10522461 154.49523926l233.34960938 235.49194335c17.55065918 17.71545411 41.03393555 27.52075195 65.91796875 27.52075196s48.36730958-9.80529786 65.91796875-27.52075195L811.1027832 578.32995606c41.28112793-41.28112793 64.10522461-96.15783692 64.10522461-154.49523926 0-58.50219727-22.74169922-113.37890625-63.85803223-154.49523927z" fill="#c2473a" p-id="1112"></path></svg>