<?xml version="1.0" standalone="no"?><!DOCTYPE svg PUBLIC "-//W3C//DTD SVG 1.1//EN" "http://www.w3.org/Graphics/SVG/1.1/DTD/svg11.dtd"><svg t="1644115784515" class="icon" viewBox="0 0 1024 1024" version="1.1" xmlns="http://www.w3.org/2000/svg" p-id="1270" xmlns:xlink="http://www.w3.org/1999/xlink" width="64" height="64"><defs><style type="text/css"></style></defs><path d="M778.66666625 672.00000031v106.66666594h-533.3333325V672.00000031a26.66666625 26.66666625 0 0 0-53.33333344 0v106.66666594a53.33333344 53.33333344 0 0 0 53.33333344 53.33333344h533.3333325a53.33333344 53.33333344 0 0 0 53.33333344-53.33333344V672.00000031a26.66666625 26.66666625 0 1 0-53.33333344 0z" fill="#aaaaaa" p-id="1271"></path><path d="M485.33333375 192.00000031m26.66666625 0l0 0q26.66666625 0 26.66666625 26.66666625l0 426.66666656q0 26.66666625-26.66666625 26.66666719l0 0q-26.66666625 0-26.66666625-26.66666719l0-426.66666656q0-26.66666625 26.66666625-26.66666625Z" fill="#aaaaaa" p-id="1272"></path><path d="M511.25333375 716.16000031a26.56000031 26.56000031 0 0 1-18.88000031-7.78666687L341.54666656 557.54666656a26.66666625 26.66666625 0 0 1 37.70666719-37.75999968l132 131.99999999L643.20000031 519.78666687a26.66666625 26.66666625 0 1 1 37.75999969 37.75999969L530.07999969 708.37333344a26.56000031 26.56000031 0 0 1-18.82666594 7.78666687z" fill="#aaaaaa" p-id="1273"></path></svg>