<?xml version="1.0" standalone="no"?><!DOCTYPE svg PUBLIC "-//W3C//DTD SVG 1.1//EN" "http://www.w3.org/Graphics/SVG/1.1/DTD/svg11.dtd"><svg t="1644488385736" class="icon" viewBox="0 0 1024 1024" version="1.1" xmlns="http://www.w3.org/2000/svg" p-id="901" xmlns:xlink="http://www.w3.org/1999/xlink" width="64" height="64"><defs><style type="text/css"></style></defs><path d="M724.69668577 671.64856975a18.53942872 18.53942872 0 0 1-11.71691894-32.88894654C752.17211912 606.90888469 774.64190672 559.67042034 774.64190672 509.24317424s-22.4697876-97.62863159-61.62506104-129.51644898a18.50234985 18.50234985 0 1 1 23.39675904-28.7361145C784.28240965 389.92341105 811.72076414 447.6181132 811.72076414 509.2802531s-27.4383545 119.31976318-75.30715942 158.28964233a18.53942872 18.53942872 0 0 1-11.67984009 4.15283203zM654.58056639 585.29191081a18.53942872 18.53942872 0 0 1-11.71691894-32.88894653c13.05175781-10.64163208 20.54168701-26.36306763 20.54168701-43.15979004s-7.4899292-32.55523682-20.54168701-43.15979004a18.50234985 18.50234985 0 1 1 23.39675902-28.73611451c21.7652893 17.68661499 34.2237854 43.90136719 34.22378541 71.93298341s-12.49557495 54.24636841-34.22378541 71.93298339a18.53942872 18.53942872 0 0 1-11.67984008 4.15283203zM520.65173338 238.7899882c-9.15847778 0-18.31695557 3.85620117-27.29003906 11.45736695L341.4125366 379.39301555H274.07733152c-30.66421508 0-55.61828614 24.95407104-55.61828613 55.61828613v148.31542968c0 30.66421508 24.95407104 55.61828614 55.61828613 55.61828614h67.33520508l151.94915772 129.1456604c8.93600464 7.60116577 18.13156128 11.45736695 27.29003906 11.45736694a29.5147705 29.5147705 0 0 0 24.84283447-13.42254638c4.41238403-6.63711547 6.67419434-15.12817383 6.67419434-25.21362305v-463.48571777c0-26.69677734-15.83267212-38.67324829-31.51702881-38.67324829zM255.53790282 583.36381023v-148.3154297a18.53942872 18.53942872 0 0 1 18.5394287-18.5394287H329.69561766v185.39428711H274.07733152a18.53942872 18.53942872 0 0 1-18.5394287-18.53942872z m259.55200195 154.58175659l-148.31542969-126.06811523V406.53473918l148.31542969-126.06811524v457.47894288z" fill="#aaaaaa" p-id="902"></path></svg>