<?xml version="1.0" standalone="no"?><!DOCTYPE svg PUBLIC "-//W3C//DTD SVG 1.1//EN" "http://www.w3.org/Graphics/SVG/1.1/DTD/svg11.dtd"><svg t="1644488469924" class="icon" viewBox="0 0 1024 1024" version="1.1" xmlns="http://www.w3.org/2000/svg" p-id="901" xmlns:xlink="http://www.w3.org/1999/xlink" width="64" height="64"><defs><style type="text/css"></style></defs><path d="M516.39453124 238.7899882c-9.15847778 0-18.31695557 3.85620117-27.29003906 11.45736695L337.15533447 379.39301555H269.82012939c-30.66421508 0-55.61828614 24.95407104-55.61828614 55.61828613v148.31542968c0 30.66421508 24.95407104 55.61828614 55.61828614 55.61828614h67.33520508l151.94915771 129.1456604c8.93600464 7.60116577 18.13156128 11.45736695 27.29003906 11.45736694a29.5147705 29.5147705 0 0 0 24.84283448-13.42254638c4.41238403-6.63711547 6.67419434-15.12817383 6.67419433-25.21362305v-463.48571777c0-26.69677734-15.83267212-38.67324829-31.51702881-38.67324829zM251.28070067 583.36381023v-148.3154297a18.53942872 18.53942872 0 0 1 18.53942872-18.5394287H325.43841552v185.39428711H269.82012939a18.53942872 18.53942872 0 0 1-18.53942872-18.53942872z m259.55200196 154.58175659l-148.31542969-126.06811523V406.53473918l148.31542969-126.06811524v457.47894288z" fill="#aaaaaa" p-id="902"></path></svg>